<svg width="800" height="450" viewBox="0 0 1600 900" xmlns="http://www.w3.org/2000/svg">
  <defs>
    <radialGradient id="bg" cx="45%" cy="55%" r="75%">
      <stop offset="0%" stop-color="#F0E6CC" />
      <stop offset="60%" stop-color="#EAD9B8" />
      <stop offset="100%" stop-color="#DEC9A0" />
    </radialGradient>
    <radialGradient id="vignette" cx="50%" cy="50%" r="70%">
      <stop offset="60%" stop-color="transparent" />
      <stop offset="100%" stop-color="#C8A96E" stop-opacity="0.18" />
    </radialGradient>
    <filter id="softBlur" x="-10%" y="-10%" width="120%" height="120%">
      <feGaussianBlur stdDeviation="2.5" />
    </filter>
  </defs>

  <!-- Background -->
  <rect width="1600" height="900" fill="url(#bg)" />
  <rect width="1600" height="900" fill="url(#vignette)" />

  <!-- Graticule lines -->
  <g stroke="#C4A97A" stroke-width="0.8" stroke-opacity="0.18">
    <line x1="180" y1="0" x2="180" y2="900" />
    <line x1="360" y1="0" x2="360" y2="900" />
    <line x1="540" y1="0" x2="540" y2="900" />
    <line x1="720" y1="0" x2="720" y2="900" />
    <line x1="900" y1="0" x2="900" y2="900" />
    <line x1="1080" y1="0" x2="1080" y2="900" />
    <line x1="1260" y1="0" x2="1260" y2="900" />
    <line x1="1440" y1="0" x2="1440" y2="900" />
    <line x1="0" y1="112" x2="1600" y2="112" />
    <line x1="0" y1="225" x2="1600" y2="225" />
    <line x1="0" y1="337" x2="1600" y2="337" />
    <line x1="0" y1="450" x2="1600" y2="450" />
    <line x1="0" y1="562" x2="1600" y2="562" />
    <line x1="0" y1="675" x2="1600" y2="675" />
    <line x1="0" y1="787" x2="1600" y2="787" />
  </g>

  <!-- Cluster A — central-left hill -->
  <ellipse cx="610" cy="500" rx="420" ry="260" fill="#E0C999" fill-opacity="0.45" filter="url(#softBlur)" />
  <path d="M 260,540 C 290,380 380,310 520,300 C 650,292 760,340 820,430 C 880,520 870,620 800,680 C 730,740 600,760 490,740 C 370,720 290,680 260,620 Z" fill="#D4B97A" fill-opacity="0.35" />
  <path d="M 320,530 C 345,400 420,345 540,335 C 655,326 745,368 800,445 C 852,520 840,610 780,660 C 720,710 605,726 502,708 C 395,690 320,648 320,590 Z" fill="#C8A55C" fill-opacity="0.30" />
  <path d="M 385,515 C 405,415 468,370 570,362 C 668,354 745,392 792,458 C 836,522 826,600 770,643 C 713,686 612,700 520,683 C 422,665 385,608 385,560 Z" fill="#B8915A" fill-opacity="0.25" />
  <path d="M 200,560 C 218,370 340,280 510,268 C 678,257 810,320 878,430 C 944,538 930,660 848,718 C 762,778 608,792 476,768 C 336,742 240,688 210,630 Z" fill="none" stroke="#A07840" stroke-width="2.2" stroke-opacity="0.50" />
  <path d="M 260,540 C 290,380 380,310 520,300 C 650,292 760,340 820,430 C 880,520 870,620 800,680 C 730,740 600,760 490,740 C 370,720 290,680 260,620 Z" fill="none" stroke="#9A6E38" stroke-width="2.0" stroke-opacity="0.55" />
  <path d="M 320,530 C 345,400 420,345 540,335 C 655,326 745,368 800,445 C 852,520 840,610 780,660 C 720,710 605,726 502,708 C 395,690 320,648 320,590 Z" fill="none" stroke="#8F6230" stroke-width="1.8" stroke-opacity="0.60" />
  <path d="M 385,515 C 405,415 468,370 570,362 C 668,354 745,392 792,458 C 836,522 826,600 770,643 C 713,686 612,700 520,683 C 422,665 385,608 385,560 Z" fill="none" stroke="#835828" stroke-width="1.8" stroke-opacity="0.65" />
  <path d="M 450,498 C 466,426 518,390 600,384 C 680,378 744,412 784,468 C 820,522 812,590 762,626 C 712,662 620,674 542,658 C 456,640 450,574 450,530 Z" fill="none" stroke="#784E22" stroke-width="1.6" stroke-opacity="0.68" />
  <path d="M 515,482 C 528,432 568,406 632,401 C 694,396 746,426 778,476 C 808,524 800,580 756,610 C 712,640 630,650 562,634 C 488,616 515,548 515,510 Z" fill="none" stroke="#6E4620" stroke-width="1.6" stroke-opacity="0.72" />
  <path d="M 578,465 C 588,432 618,413 662,409 C 706,405 746,430 768,474 C 789,516 782,564 746,588 C 710,612 645,618 594,604 C 538,588 578,510 578,485 Z" fill="none" stroke="#643E1C" stroke-width="1.5" stroke-opacity="0.76" />
  <!-- Summit cap A -->
  <ellipse cx="668" cy="510" rx="60" ry="40" fill="#8B5E2A" fill-opacity="0.20" />
  <ellipse cx="668" cy="510" rx="60" ry="40" fill="none" stroke="#5C3618" stroke-width="1.4" stroke-opacity="0.80" />
  <ellipse cx="668" cy="510" rx="30" ry="18" fill="none" stroke="#4E2E12" stroke-width="1.2" stroke-opacity="0.75" />

  <!-- Cluster B — upper-right hill -->
  <ellipse cx="1220" cy="260" rx="300" ry="180" fill="#D9BF80" fill-opacity="0.30" filter="url(#softBlur)" />
  <path d="M 1000,280 C 1020,180 1100,138 1200,135 C 1302,132 1390,175 1420,255 C 1450,335 1420,400 1360,430 C 1298,460 1200,460 1130,432 C 1052,400 1000,360 1000,318 Z" fill="none" stroke="#A07840" stroke-width="2.0" stroke-opacity="0.45" />
  <path d="M 1040,278 C 1058,192 1128,155 1212,152 C 1295,149 1370,188 1398,260 C 1424,330 1396,390 1342,418 C 1286,446 1196,446 1132,420 C 1062,392 1040,348 1040,308 Z" fill="none" stroke="#916030" stroke-width="1.8" stroke-opacity="0.52" />
  <path d="M 1082,270 C 1098,200 1155,168 1224,165 C 1290,162 1354,198 1378,260 C 1400,318 1376,372 1330,398 C 1282,424 1202,426 1146,404 C 1082,378 1082,332 1082,296 Z" fill="none" stroke="#845428" stroke-width="1.6" stroke-opacity="0.58" />
  <path d="M 1125,262 C 1138,208 1180,182 1236,180 C 1291,178 1342,210 1360,262 C 1378,312 1358,358 1318,380 C 1276,402 1208,402 1162,382 C 1112,360 1125,318 1125,286 Z" fill="none" stroke="#784822" stroke-width="1.5" stroke-opacity="0.65" />
  <ellipse cx="1230" cy="265" rx="72" ry="50" fill="none" stroke="#6A3E1A" stroke-width="1.4" stroke-opacity="0.72" />
  <ellipse cx="1230" cy="265" rx="36" ry="24" fill="none" stroke="#5C341A" stroke-width="1.2" stroke-opacity="0.76" />

  <!-- Cluster C — lower-right hill -->
  <ellipse cx="1380" cy="660" rx="220" ry="140" fill="#D4B87A" fill-opacity="0.28" filter="url(#softBlur)" />
  <path d="M 1200,680 C 1212,600 1265,560 1348,556 C 1428,552 1500,594 1524,660 C 1546,722 1516,776 1464,800 C 1410,824 1336,820 1282,794 C 1222,766 1200,730 1200,700 Z" fill="none" stroke="#9A6E38" stroke-width="1.8" stroke-opacity="0.45" />
  <path d="M 1240,672 C 1250,604 1296,568 1366,565 C 1434,562 1495,601 1516,660 C 1536,716 1508,764 1460,786 C 1410,808 1344,806 1296,782 C 1242,756 1240,716 1240,690 Z" fill="none" stroke="#875228" stroke-width="1.6" stroke-opacity="0.52" />
  <path d="M 1282,664 C 1290,608 1326,578 1384,576 C 1440,574 1488,608 1506,658 C 1522,706 1498,748 1456,768 C 1412,788 1352,786 1310,764 C 1264,740 1282,702 1282,680 Z" fill="none" stroke="#7A4820" stroke-width="1.5" stroke-opacity="0.58" />
  <ellipse cx="1386" cy="662" rx="76" ry="52" fill="none" stroke="#6C3E1A" stroke-width="1.4" stroke-opacity="0.65" />
  <ellipse cx="1386" cy="662" rx="38" ry="26" fill="none" stroke="#5E3416" stroke-width="1.2" stroke-opacity="0.72" />

  <!-- Cluster D — far-left hill -->
  <ellipse cx="130" cy="320" rx="160" ry="100" fill="#D0B878" fill-opacity="0.22" filter="url(#softBlur)" />
  <path d="M 20,338 C 28,268 74,238 132,236 C 190,234 240,262 258,320 C 274,376 248,420 202,438 C 156,456 96,452 60,426 C 24,400 20,372 20,350 Z" fill="none" stroke="#9A6E38" stroke-width="1.8" stroke-opacity="0.40" />
  <path d="M 52,330 C 58,275 96,250 142,248 C 188,246 228,270 244,320 C 258,368 236,408 196,424 C 155,440 100,436 68,414 C 36,390 52,362 52,346 Z" fill="none" stroke="#845228" stroke-width="1.6" stroke-opacity="0.50" />
  <ellipse cx="148" cy="322" rx="60" ry="42" fill="none" stroke="#704220" stroke-width="1.4" stroke-opacity="0.60" />
  <ellipse cx="148" cy="322" rx="30" ry="20" fill="none" stroke="#5E3618" stroke-width="1.2" stroke-opacity="0.68" />

  <!-- Cluster E — bottom-center ripple -->
  <ellipse cx="820" cy="820" rx="280" ry="140" fill="#CBB070" fill-opacity="0.20" filter="url(#softBlur)" />
  <path d="M 580,850 C 592,778 660,748 780,746 C 900,744 974,780 1000,840 C 1022,895 990,920 920,930 C 850,940 740,935 668,912 C 596,888 580,870 580,858 Z" fill="none" stroke="#9A6E38" stroke-width="1.8" stroke-opacity="0.38" />
  <path d="M 624,848 C 634,786 692,760 794,758 C 894,756 958,790 980,842 C 1000,890 974,914 912,922 C 850,930 750,926 684,906 C 614,884 624,868 624,856 Z" fill="none" stroke="#855228" stroke-width="1.5" stroke-opacity="0.46" />
  <ellipse cx="812" cy="840" rx="110" ry="58" fill="none" stroke="#724018" stroke-width="1.3" stroke-opacity="0.56" />
  <ellipse cx="812" cy="840" rx="55" ry="28" fill="none" stroke="#603616" stroke-width="1.1" stroke-opacity="0.62" />

  <!-- Primary data points with rings -->
  <circle cx="668" cy="510" r="20" fill="none" stroke="#7A4E22" stroke-width="1.2" stroke-opacity="0.50" stroke-dasharray="3 3" />
  <circle cx="668" cy="510" r="8" fill="#8B5A28" fill-opacity="0.85" />
  <circle cx="668" cy="510" r="6" fill="#C8903C" fill-opacity="0.90" />

  <circle cx="1230" cy="265" r="18" fill="none" stroke="#7A4E22" stroke-width="1.2" stroke-opacity="0.50" stroke-dasharray="3 3" />
  <circle cx="1230" cy="265" r="7" fill="#8B5A28" fill-opacity="0.85" />
  <circle cx="1230" cy="265" r="5" fill="#C8903C" fill-opacity="0.90" />

  <circle cx="1386" cy="662" r="16" fill="none" stroke="#7A4E22" stroke-width="1.2" stroke-opacity="0.50" stroke-dasharray="3 3" />
  <circle cx="1386" cy="662" r="6" fill="#8B5A28" fill-opacity="0.85" />
  <circle cx="1386" cy="662" r="4" fill="#C8903C" fill-opacity="0.90" />

  <circle cx="148" cy="322" r="15" fill="none" stroke="#7A4E22" stroke-width="1.2" stroke-opacity="0.50" stroke-dasharray="3 3" />
  <circle cx="148" cy="322" r="6" fill="#8B5A28" fill-opacity="0.85" />
  <circle cx="148" cy="322" r="4" fill="#C8903C" fill-opacity="0.90" />

  <circle cx="812" cy="840" r="15" fill="none" stroke="#7A4E22" stroke-width="1.2" stroke-opacity="0.50" stroke-dasharray="3 3" />
  <circle cx="812" cy="840" r="6" fill="#8B5A28" fill-opacity="0.85" />
  <circle cx="812" cy="840" r="4" fill="#C8903C" fill-opacity="0.90" />

  <!-- Secondary data points -->
  <circle cx="430" cy="420" r="5" fill="#A07030" fill-opacity="0.75" /><circle cx="430" cy="420" r="2.5" fill="#F0DEB0" fill-opacity="0.90" />
  <circle cx="880" cy="390" r="5" fill="#8B6028" fill-opacity="0.75" /><circle cx="880" cy="390" r="2.5" fill="#F0DEB0" fill-opacity="0.90" />
  <circle cx="350" cy="700" r="5" fill="#9A6830" fill-opacity="0.75" /><circle cx="350" cy="700" r="2.5" fill="#F0DEB0" fill-opacity="0.90" />
  <circle cx="1100" cy="480" r="5" fill="#A07030" fill-opacity="0.75" /><circle cx="1100" cy="480" r="2.5" fill="#F0DEB0" fill-opacity="0.90" />
  <circle cx="1050" cy="160" r="5" fill="#8B6028" fill-opacity="0.75" /><circle cx="1050" cy="160" r="2.5" fill="#F0DEB0" fill-opacity="0.90" />
  <circle cx="1500" cy="340" r="5" fill="#9A6830" fill-opacity="0.75" /><circle cx="1500" cy="340" r="2.5" fill="#F0DEB0" fill-opacity="0.90" />
  <circle cx="1460" cy="520" r="5" fill="#A07030" fill-opacity="0.75" /><circle cx="1460" cy="520" r="2.5" fill="#F0DEB0" fill-opacity="0.90" />
  <circle cx="700" cy="720" r="5" fill="#8B6028" fill-opacity="0.75" /><circle cx="700" cy="720" r="2.5" fill="#F0DEB0" fill-opacity="0.90" />
  <circle cx="200" cy="620" r="5" fill="#9A6830" fill-opacity="0.75" /><circle cx="200" cy="620" r="2.5" fill="#F0DEB0" fill-opacity="0.90" />
  <circle cx="960" cy="680" r="5" fill="#A07030" fill-opacity="0.75" /><circle cx="960" cy="680" r="2.5" fill="#F0DEB0" fill-opacity="0.90" />
  <circle cx="560" cy="240" r="5" fill="#8B6028" fill-opacity="0.75" /><circle cx="560" cy="240" r="2.5" fill="#F0DEB0" fill-opacity="0.90" />
  <circle cx="1320" cy="780" r="5" fill="#9A6830" fill-opacity="0.75" /><circle cx="1320" cy="780" r="2.5" fill="#F0DEB0" fill-opacity="0.90" />

  <!-- Tertiary data points -->
  <g fill="#8B6030" fill-opacity="0.55">
    <circle cx="140" cy="150" r="3" />
    <circle cx="310" cy="200" r="3" />
    <circle cx="480" cy="135" r="3" />
    <circle cx="730" cy="160" r="3" />
    <circle cx="920" cy="120" r="3" />
    <circle cx="1150" cy="360" r="3" />
    <circle cx="1280" cy="480" r="3" />
    <circle cx="1420" cy="140" r="3" />
    <circle cx="1540" cy="620" r="3" />
    <circle cx="1540" cy="240" r="3" />
    <circle cx="1180" cy="660" r="3" />
    <circle cx="1060" cy="800" r="3" />
    <circle cx="900" cy="780" r="3" />
    <circle cx="620" cy="860" r="3" />
    <circle cx="440" cy="800" r="3" />
    <circle cx="240" cy="780" r="3" />
    <circle cx="80" cy="560" r="3" />
    <circle cx="80" cy="700" r="3" />
    <circle cx="400" cy="340" r="3" />
    <circle cx="950" cy="460" r="3" />
    <circle cx="750" cy="320" r="3" />
    <circle cx="1330" cy="360" r="3" />
    <circle cx="1480" cy="760" r="3" />
    <circle cx="290" cy="480" r="3" />
    <circle cx="1150" cy="80" r="3" />
  </g>

  <!-- Connecting lines -->
  <g stroke="#9A7040" stroke-width="1.0" stroke-opacity="0.22" stroke-dasharray="6 6" fill="none">
    <line x1="668" y1="510" x2="430" y2="420" />
    <line x1="668" y1="510" x2="880" y2="390" />
    <line x1="668" y1="510" x2="700" y2="720" />
    <line x1="668" y1="510" x2="350" y2="700" />
    <line x1="1230" y1="265" x2="1100" y2="480" />
    <line x1="1230" y1="265" x2="1050" y2="160" />
    <line x1="1230" y1="265" x2="1500" y2="340" />
    <line x1="1386" y1="662" x2="1460" y2="520" />
    <line x1="1386" y1="662" x2="1320" y2="780" />
    <line x1="1386" y1="662" x2="1100" y2="480" />
    <line x1="148" y1="322" x2="430" y2="420" />
    <line x1="148" y1="322" x2="200" y2="620" />
    <line x1="812" y1="840" x2="700" y2="720" />
    <line x1="812" y1="840" x2="960" y2="680" />
    <line x1="880" y1="390" x2="1100" y2="480" />
    <line x1="880" y1="390" x2="730" y2="160" />
    <line x1="560" y1="240" x2="430" y2="420" />
    <line x1="560" y1="240" x2="730" y2="160" />
  </g>

  <!-- Elevation tick marks -->
  <g stroke="#7A5020" stroke-width="1.2" stroke-opacity="0.38">
    <line x1="540" y1="298" x2="540" y2="285" />
    <line x1="640" y1="290" x2="640" y2="277" />
    <line x1="740" y1="302" x2="740" y2="289" />
    <line x1="800" y1="348" x2="813" y2="340" />
    <line x1="835" y1="440" x2="848" y2="436" />
    <line x1="836" y1="540" x2="849" y2="542" />
    <line x1="800" y1="628" x2="810" y2="636" />
    <line x1="726" y1="672" x2="726" y2="685" />
    <line x1="618" y1="672" x2="618" y2="685" />
    <line x1="520" y1="645" x2="510" y2="654" />
    <line x1="440" y1="590" x2="428" y2="596" />
    <line x1="400" y1="510" x2="388" y2="510" />
    <line x1="420" y1="430" x2="410" y2="422" />
    <line x1="480" y1="370" x2="475" y2="358" />
    <line x1="1100" y1="152" x2="1100" y2="140" />
    <line x1="1190" y1="140" x2="1190" y2="128" />
    <line x1="1290" y1="146" x2="1290" y2="134" />
    <line x1="1380" y1="178" x2="1390" y2="168" />
    <line x1="1408" y1="260" x2="1420" y2="260" />
    <line x1="1380" y1="356" x2="1390" y2="364" />
    <line x1="1300" y1="412" x2="1300" y2="424" />
    <line x1="1180" y1="440" x2="1180" y2="452" />
    <line x1="1080" y1="400" x2="1068" y2="406" />
    <line x1="1040" y1="314" x2="1028" y2="314" />
  </g>

  <!-- Vignette overlay -->
  <rect width="1600" height="900" fill="url(#vignette)" style="mix-blend-mode:multiply" />

  <!-- Outer border -->
  <rect x="2" y="2" width="1596" height="896" fill="none" stroke="#C8A06A" stroke-width="3" stroke-opacity="0.35" />
</svg>