<svg width="800" height="450" viewBox="0 0 1600 900" xmlns="http://www.w3.org/2000/svg">
  <defs>
    <radialGradient id="bgGrad" cx="50%" cy="48%" r="72%">
      <stop offset="0%" stop-color="#F4EAD2" />
      <stop offset="55%" stop-color="#EDD9B4" />
      <stop offset="100%" stop-color="#D9C090" />
    </radialGradient>
    <radialGradient id="shieldGlow" cx="50%" cy="42%" r="65%">
      <stop offset="0%" stop-color="#F8EDD4" />
      <stop offset="55%" stop-color="#E8C87A" />
      <stop offset="100%" stop-color="#C8983A" />
    </radialGradient>
    <linearGradient id="shieldFill" x1="0%" y1="0%" x2="0%" y2="100%">
      <stop offset="0%" stop-color="#EBDBB2" />
      <stop offset="45%" stop-color="#D4B06A" />
      <stop offset="100%" stop-color="#B88A3E" />
    </linearGradient>
    <linearGradient id="silLeft" x1="0%" y1="0%" x2="10%" y2="100%">
      <stop offset="0%" stop-color="#C8955A" stop-opacity="0.80" />
      <stop offset="100%" stop-color="#9A6430" stop-opacity="0.60" />
    </linearGradient>
    <linearGradient id="silRight" x1="100%" y1="0%" x2="90%" y2="100%">
      <stop offset="0%" stop-color="#C09050" stop-opacity="0.75" />
      <stop offset="100%" stop-color="#8A5C28" stop-opacity="0.55" />
    </linearGradient>
    <linearGradient id="silSmall" x1="0%" y1="0%" x2="0%" y2="100%">
      <stop offset="0%" stop-color="#B88A48" stop-opacity="0.45" />
      <stop offset="100%" stop-color="#8A6030" stop-opacity="0.30" />
    </linearGradient>
    <radialGradient id="vignette" cx="50%" cy="50%" r="65%">
      <stop offset="55%" stop-color="transparent" />
      <stop offset="100%" stop-color="#7A4E20" stop-opacity="0.14" />
    </radialGradient>
    <filter id="glowBlur" x="-30%" y="-30%" width="160%" height="160%">
      <feGaussianBlur stdDeviation="18" />
    </filter>
    <filter id="softBlur" x="-20%" y="-20%" width="140%" height="140%">
      <feGaussianBlur stdDeviation="8" />
    </filter>
    <filter id="tinyBlur" x="-10%" y="-10%" width="120%" height="120%">
      <feGaussianBlur stdDeviation="3" />
    </filter>
    <clipPath id="shieldClip">
      <path d="M 800,218 C 756,218 672,228 584,268 L 584,438 C 584,572 688,654 800,698 C 912,654 1016,572 1016,438 L 1016,268 C 928,228 844,218 800,218 Z" />
    </clipPath>
  </defs>

  <!-- Background -->
  <rect width="1600" height="900" fill="url(#bgGrad)" />
  <!-- Warm horizon band -->
  <ellipse cx="800" cy="900" rx="900" ry="280" fill="#C8A056" fill-opacity="0.10" />
  <!-- Ambient glow behind shield -->
  <ellipse cx="800" cy="460" rx="320" ry="300" fill="#D4A84A" fill-opacity="0.22" filter="url(#glowBlur)" />

  <!-- Concentric emanation rings -->
  <ellipse cx="800" cy="460" rx="420" ry="370" fill="none" stroke="#C49040" stroke-width="1.5" stroke-opacity="0.12" />
  <ellipse cx="800" cy="460" rx="510" ry="450" fill="none" stroke="#C49040" stroke-width="1.2" stroke-opacity="0.09" />
  <ellipse cx="800" cy="460" rx="600" ry="530" fill="none" stroke="#C49040" stroke-width="1.0" stroke-opacity="0.07" />
  <ellipse cx="800" cy="460" rx="700" ry="620" fill="none" stroke="#C49040" stroke-width="0.8" stroke-opacity="0.05" />

  <!-- Faint radial spokes -->
  <g stroke="#C49040" stroke-width="0.8" stroke-opacity="0.07">
    <line x1="800" y1="460" x2="1620" y2="460" />
    <line x1="800" y1="460" x2="1591.8" y2="646.4" />
    <line x1="800" y1="460" x2="1510.1" y2="820" />
    <line x1="800" y1="460" x2="1379.8" y2="969.1" />
    <line x1="800" y1="460" x2="1210" y2="1083.5" />
    <line x1="800" y1="460" x2="1012.2" y2="1155.6" />
    <line x1="800" y1="460" x2="800" y2="1180" />
    <line x1="800" y1="460" x2="587.8" y2="1155.6" />
    <line x1="800" y1="460" x2="390" y2="1083.5" />
    <line x1="800" y1="460" x2="220.2" y2="969.1" />
    <line x1="800" y1="460" x2="89.9" y2="820" />
    <line x1="800" y1="460" x2="8.2" y2="646.4" />
    <line x1="800" y1="460" x2="-20" y2="460" />
    <line x1="800" y1="460" x2="8.2" y2="273.6" />
    <line x1="800" y1="460" x2="89.9" y2="100" />
    <line x1="800" y1="460" x2="220.2" y2="-49.1" />
    <line x1="800" y1="460" x2="390" y2="-163.5" />
    <line x1="800" y1="460" x2="587.8" y2="-235.6" />
    <line x1="800" y1="460" x2="800" y2="-260" />
    <line x1="800" y1="460" x2="1012.2" y2="-235.6" />
    <line x1="800" y1="460" x2="1210" y2="-163.5" />
    <line x1="800" y1="460" x2="1379.8" y2="-49.1" />
    <line x1="800" y1="460" x2="1510.1" y2="100" />
    <line x1="800" y1="460" x2="1591.8" y2="273.6" />
  </g>

  <!-- Ghost silhouettes — far field -->
  <!-- Ghost far-left -->
  <g fill-opacity="0.18" fill="#9A6830">
    <circle cx="110" cy="340" r="52" />
    <path d="M 110,392 C 54,392 10,430 10,480 L 10,560 Q 60,590 110,590 Q 160,590 210,560 L 210,480 C 210,430 166,392 110,392 Z" />
  </g>
  <!-- Ghost far-right -->
  <g fill-opacity="0.18" fill="#9A6830">
    <circle cx="1490" cy="340" r="52" />
    <path d="M 1490,392 C 1434,392 1390,430 1390,480 L 1390,560 Q 1440,590 1490,590 Q 1540,590 1590,560 L 1590,480 C 1590,430 1546,392 1490,392 Z" />
  </g>
  <!-- Ghost upper-left small -->
  <g fill-opacity="0.13" fill="#8A6028">
    <circle cx="360" cy="230" r="36" />
    <path d="M 360,266 C 316,266 284,294 284,330 L 284,390 Q 322,408 360,408 Q 398,408 436,390 L 436,330 C 436,294 404,266 360,266 Z" />
  </g>
  <!-- Ghost upper-right small -->
  <g fill-opacity="0.13" fill="#8A6028">
    <circle cx="1240" cy="230" r="36" />
    <path d="M 1240,266 C 1196,266 1164,294 1164,330 L 1164,390 Q 1202,408 1240,408 Q 1278,408 1316,390 L 1316,330 C 1316,294 1284,266 1240,266 Z" />
  </g>

  <!-- Main left silhouette -->
  <g>
    <ellipse cx="310" cy="510" rx="130" ry="160" fill="#C49040" fill-opacity="0.08" filter="url(#softBlur)" />
    <circle cx="310" cy="370" r="76" fill="url(#silLeft)" />
    <path d="M 310,446 C 222,446 150,510 150,590 L 150,700 Q 230,740 310,740 Q 390,740 470,700 L 470,590 C 470,510 398,446 310,446 Z" fill="url(#silLeft)" />
    <circle cx="296" cy="355" r="28" fill="#EDD8A8" fill-opacity="0.18" />
  </g>

  <!-- Main right silhouette -->
  <g>
    <ellipse cx="1290" cy="510" rx="130" ry="160" fill="#C49040" fill-opacity="0.08" filter="url(#softBlur)" />
    <circle cx="1290" cy="370" r="76" fill="url(#silRight)" />
    <path d="M 1290,446 C 1202,446 1130,510 1130,590 L 1130,700 Q 1210,740 1290,740 Q 1370,740 1450,700 L 1450,590 C 1450,510 1378,446 1290,446 Z" fill="url(#silRight)" />
    <circle cx="1276" cy="355" r="28" fill="#EDD8A8" fill-opacity="0.18" />
  </g>

  <!-- Mid-field secondary silhouettes -->
  <!-- Mid-left -->
  <g fill="url(#silSmall)">
    <circle cx="530" cy="540" r="52" />
    <path d="M 530,592 C 484,592 448,622 448,660 L 448,740 Q 489,762 530,762 Q 571,762 612,740 L 612,660 C 612,622 576,592 530,592 Z" />
  </g>
  <!-- Mid-right -->
  <g fill="url(#silSmall)">
    <circle cx="1070" cy="540" r="52" />
    <path d="M 1070,592 C 1024,592 988,622 988,660 L 988,740 Q 1029,762 1070,762 Q 1111,762 1152,740 L 1152,660 C 1152,622 1116,592 1070,592 Z" />
  </g>

  <!-- Connection arcs from silhouettes to shield -->
  <g fill="none" stroke="#A87838" stroke-opacity="0.22" stroke-width="1.8" stroke-dasharray="8 6">
    <path d="M 430,460 Q 580,380 584,438" />
    <path d="M 1170,460 Q 1020,380 1016,438" />
    <path d="M 572,580 Q 660,500 584,480" />
    <path d="M 1028,580 Q 940,500 1016,480" />
  </g>

  <!-- Shield shadow -->
  <path d="M 800,230 C 754,230 668,240 578,282 L 578,448 C 578,585 684,668 800,714 C 916,668 1022,585 1022,448 L 1022,282 C 932,240 846,230 800,230 Z" fill="#7A4C1E" fill-opacity="0.18" transform="translate(10, 14)" filter="url(#softBlur)" />

  <!-- Outer shield stroke ring -->
  <path d="M 800,208 C 754,208 664,219 572,262 L 572,442 C 572,582 680,668 800,714 C 920,668 1028,582 1028,442 L 1028,262 C 936,219 846,208 800,208 Z" fill="none" stroke="#C8A050" stroke-width="3" stroke-opacity="0.35" />

  <!-- Main shield body -->
  <path d="M 800,218 C 756,218 672,228 584,268 L 584,438 C 584,572 688,654 800,698 C 912,654 1016,572 1016,438 L 1016,268 C 928,228 844,218 800,218 Z" fill="url(#shieldFill)" />

  <!-- Shield inner bevel highlight -->
  <path d="M 800,234 C 760,234 682,244 604,280 L 604,440 C 604,562 700,636 800,676 C 900,636 996,562 996,440 L 996,280 C 918,244 840,234 800,234 Z" fill="none" stroke="#F4E8C0" stroke-width="1.5" stroke-opacity="0.55" />

  <!-- Shield stroke border -->
  <path d="M 800,218 C 756,218 672,228 584,268 L 584,438 C 584,572 688,654 800,698 C 912,654 1016,572 1016,438 L 1016,268 C 928,228 844,218 800,218 Z" fill="none" stroke="#8B5822" stroke-width="4" stroke-opacity="0.80" />

  <!-- Shield top edge highlights -->
  <path d="M 800,218 C 756,218 672,228 584,268" fill="none" stroke="#F0E0A8" stroke-width="2.5" stroke-opacity="0.45" stroke-linecap="round" />
  <path d="M 800,218 C 844,218 928,228 1016,268" fill="none" stroke="#F0E0A8" stroke-width="2.5" stroke-opacity="0.45" stroke-linecap="round" />

  <!-- Lock shackle -->
  <path d="M 756,418 L 756,384 C 756,348 844,348 844,384 L 844,418" fill="none" stroke="#6A3E16" stroke-width="14" stroke-opacity="0.90" stroke-linecap="round" />

  <!-- Lock body -->
  <rect x="728" y="416" width="144" height="110" rx="14" ry="14" fill="#7A4C20" fill-opacity="0.88" />
  <rect x="728" y="416" width="144" height="110" rx="14" ry="14" fill="none" stroke="#5C3010" stroke-width="2.5" stroke-opacity="0.70" />
  <!-- Lock body inner highlight -->
  <rect x="736" y="422" width="130" height="40" rx="8" ry="8" fill="#C89850" fill-opacity="0.22" />

  <!-- Keyhole -->
  <circle cx="800" cy="462" r="20" fill="#3E2008" fill-opacity="0.85" />
  <circle cx="800" cy="462" r="20" fill="none" stroke="#C8A050" stroke-width="1.5" stroke-opacity="0.40" />
  <rect x="792" y="475" width="16" height="26" rx="4" ry="4" fill="#3E2008" fill-opacity="0.85" />

  <!-- Lock body top shine -->
  <rect x="734" y="424" width="50" height="12" rx="4" ry="4" fill="#F0DCA0" fill-opacity="0.20" />

  <!-- Verified badge -->
  <circle cx="984" cy="270" r="34" fill="#C49040" fill-opacity="0.92" />
  <circle cx="984" cy="270" r="34" fill="none" stroke="#F4E4B0" stroke-width="2.5" stroke-opacity="0.70" />
  <path d="M 968,270 L 980,283 L 1002,255" fill="none" stroke="#F8F0DC" stroke-width="5" stroke-linecap="round" stroke-linejoin="round" stroke-opacity="0.95" />

  <!-- Authentication step dots -->
  <line x1="648" y1="770" x2="952" y2="770" stroke="#A07832" stroke-width="1.5" stroke-opacity="0.35" />
  <!-- Step 1 — completed -->
  <circle cx="648" cy="770" r="14" fill="#8B5820" fill-opacity="0.85" stroke="#8B5820" stroke-width="1.8" stroke-opacity="0.60" />
  <path d="M 642,770 L 647,776 L 655,762" fill="none" stroke="#F4E4B0" stroke-width="2.8" stroke-linecap="round" stroke-linejoin="round" stroke-opacity="0.92" />
  <!-- Step 2 — completed -->
  <circle cx="724" cy="770" r="14" fill="#8B5820" fill-opacity="0.85" stroke="#8B5820" stroke-width="1.8" stroke-opacity="0.60" />
  <path d="M 718,770 L 723,776 L 731,762" fill="none" stroke="#F4E4B0" stroke-width="2.8" stroke-linecap="round" stroke-linejoin="round" stroke-opacity="0.92" />
  <!-- Step 3 — completed -->
  <circle cx="800" cy="770" r="14" fill="#8B5820" fill-opacity="0.85" stroke="#8B5820" stroke-width="1.8" stroke-opacity="0.60" />
  <path d="M 794,770 L 799,776 L 807,762" fill="none" stroke="#F4E4B0" stroke-width="2.8" stroke-linecap="round" stroke-linejoin="round" stroke-opacity="0.92" />
  <!-- Step 4 — active -->
  <circle cx="876" cy="770" r="12" fill="none" stroke="#8B5820" stroke-width="1.8" stroke-opacity="0.60" />
  <circle cx="876" cy="770" r="18" fill="none" stroke="#C49040" stroke-width="1.5" stroke-opacity="0.35" />
  <circle cx="876" cy="770" r="5" fill="#C49040" fill-opacity="0.70" />
  <!-- Step 5 — remaining -->
  <circle cx="952" cy="770" r="12" fill="none" stroke="#8B5820" stroke-width="1.8" stroke-opacity="0.60" />
  <circle cx="952" cy="770" r="5" fill="#C8A86A" fill-opacity="0.35" />

  <!-- Floating key icon — left -->
  <g transform="translate(148, 640)" opacity="0.30">
    <circle cx="0" cy="0" r="22" fill="none" stroke="#8A5E28" stroke-width="2.5" />
    <circle cx="0" cy="0" r="11" fill="none" stroke="#8A5E28" stroke-width="2.5" />
    <line x1="22" y1="0" x2="62" y2="0" stroke="#8A5E28" stroke-width="2.5" stroke-linecap="round" />
    <line x1="50" y1="0" x2="50" y2="12" stroke="#8A5E28" stroke-width="2.5" stroke-linecap="round" />
    <line x1="62" y1="0" x2="62" y2="12" stroke="#8A5E28" stroke-width="2.5" stroke-linecap="round" />
  </g>
  <!-- Floating key icon — right -->
  <g transform="translate(1390, 650) scale(-1,1)" opacity="0.28">
    <circle cx="0" cy="0" r="22" fill="none" stroke="#8A5E28" stroke-width="2.5" />
    <circle cx="0" cy="0" r="11" fill="none" stroke="#8A5E28" stroke-width="2.5" />
    <line x1="22" y1="0" x2="62" y2="0" stroke="#8A5E28" stroke-width="2.5" stroke-linecap="round" />
    <line x1="50" y1="0" x2="50" y2="12" stroke="#8A5E28" stroke-width="2.5" stroke-linecap="round" />
    <line x1="62" y1="0" x2="62" y2="12" stroke="#8A5E28" stroke-width="2.5" stroke-linecap="round" />
  </g>

  <!-- Scattered fine dots -->
  <g fill="#9A7030" fill-opacity="0.22">
    <circle cx="90" cy="180" r="3.5" />
    <circle cx="220" cy="120" r="3.5" />
    <circle cx="460" cy="90" r="3.5" />
    <circle cx="680" cy="75" r="3.5" />
    <circle cx="940" cy="85" r="3.5" />
    <circle cx="1160" cy="95" r="3.5" />
    <circle cx="1380" cy="110" r="3.5" />
    <circle cx="1520" cy="200" r="3.5" />
    <circle cx="1540" cy="420" r="3.5" />
    <circle cx="1510" cy="650" r="3.5" />
    <circle cx="1380" cy="810" r="3.5" />
    <circle cx="80" cy="780" r="3.5" />
    <circle cx="70" cy="540" r="3.5" />
    <circle cx="170" cy="830" r="3.5" />
    <circle cx="450" cy="860" r="3.5" />
    <circle cx="700" cy="860" r="3.5" />
    <circle cx="1000" cy="860" r="3.5" />
    <circle cx="1260" cy="850" r="3.5" />
    <circle cx="320" cy="760" r="3.5" />
    <circle cx="1100" cy="790" r="3.5" />
  </g>

  <!-- Fine arc strokes -->
  <g fill="none" stroke="#B89050" stroke-opacity="0.12" stroke-width="1.2">
    <path d="M 200,50 Q 400,20 600,60" />
    <path d="M 1000,55 Q 1200,25 1400,65" />
    <path d="M 50,200 Q 100,160 180,185" />
    <path d="M 1420,195 Q 1500,165 1550,190" />
  </g>

  <!-- Vignette -->
  <rect width="1600" height="900" fill="url(#vignette)" />

  <!-- Outer border -->
  <rect x="3" y="3" width="1594" height="894" fill="none" stroke="#C8A050" stroke-width="3" stroke-opacity="0.28" />
</svg>